<svg xmlns="http://www.w3.org/2000/svg" viewBox="0 0 96 96" id="Dashboard-3--Streamline-Core-Remix" height="96" width="96">
    <desc>Dashboard 3 Streamline Icon: https://streamlinehq.com</desc>
    <g id="Free Remix/Interface Essential/dashboard-3--app-application-dashboard-home-layout-vertical">
        <path id="Union" fill="#0070B9" fill-rule="evenodd" d="M9.428571428571429 9.428571428571429v39.42857142857142h25.71428571428571v-39.42857142857142h-25.71428571428571ZM0.8571428571428571 8.571428571428571C0.8571428571428571 4.310948571428571 4.310948571428571 0.8571428571428571 8.571428571428571 0.8571428571428571h27.428571428571427c4.260479999999999 0 7.7142857142857135 3.453805714285714 7.7142857142857135 7.7142857142857135v41.14285714285714c0 4.260479999999999 -3.453805714285714 7.7142857142857135 -7.7142857142857135 7.7142857142857135h-27.428571428571427C4.310948571428571 57.42857142857142 0.8571428571428571 53.97476571428571 0.8571428571428571 49.71428571428571v-41.14285714285714ZM60 0.8571428571428571c-4.260479999999999 0 -7.7142857142857135 3.453805714285714 -7.7142857142857135 7.7142857142857135v13.782857142857141c0 4.260479999999999 3.453805714285714 7.7142857142857135 7.7142857142857135 7.7142857142857135h27.428571428571427c4.260342857142857 0 7.7142857142857135 -3.453805714285714 7.7142857142857135 -7.7142857142857135V8.571428571428571c0 -4.260479999999999 -3.453942857142857 -7.7142857142857135 -7.7142857142857135 -7.7142857142857135h-27.428571428571427Zm0.8571428571428571 46.285714285714285v39.42857142857142h25.71428571428571v-39.42857142857142h-25.71428571428571Zm-8.571428571428571 -0.8571428571428571c0 -4.260479999999999 3.453805714285714 -7.7142857142857135 7.7142857142857135 -7.7142857142857135h27.428571428571427c4.260342857142857 0 7.7142857142857135 3.453805714285714 7.7142857142857135 7.7142857142857135v41.14285714285714c0 4.260342857142857 -3.453942857142857 7.7142857142857135 -7.7142857142857135 7.7142857142857135h-27.428571428571427c-4.260479999999999 0 -7.7142857142857135 -3.453942857142857 -7.7142857142857135 -7.7142857142857135v-41.14285714285714ZM8.571428571428571 65.93136c-4.260479999999999 0 -7.7142857142857135 3.4540114285714285 -7.7142857142857135 7.714354285714286v13.782857142857141c0 4.260342857142857 3.453805714285714 7.7142857142857135 7.7142857142857135 7.7142857142857135h27.428571428571427c4.260479999999999 0 7.7142857142857135 -3.453942857142857 7.7142857142857135 -7.7142857142857135v-13.782857142857141c0 -4.260342857142857 -3.453805714285714 -7.714354285714286 -7.7142857142857135 -7.714354285714286h-27.428571428571427Z" clip-rule="evenodd" stroke-width="6.8571"></path>
    </g>
</svg>